<svg width="40" height="21" viewBox="0 0 40 21" fill="none" xmlns="http://www.w3.org/2000/svg">
<path d="M5.18164 0.892578V17.5039C5.18164 18.2878 5.23633 18.8073 5.3457 19.0625C5.46419 19.3177 5.64193 19.5137 5.87891 19.6504C6.11589 19.778 6.55794 19.8418 7.20508 19.8418V20.334H1.06641V19.8418C1.64062 19.8418 2.03255 19.7826 2.24219 19.6641C2.45182 19.5456 2.61589 19.3496 2.73438 19.0762C2.85286 18.8027 2.91211 18.2786 2.91211 17.5039V6.12891C2.91211 4.71615 2.88021 3.85026 2.81641 3.53125C2.7526 3.20312 2.64779 2.97982 2.50195 2.86133C2.36523 2.74284 2.1875 2.68359 1.96875 2.68359C1.73177 2.68359 1.43099 2.75651 1.06641 2.90234L0.833984 2.42383L4.56641 0.892578H5.18164Z" fill="black"/>
<path d="M11.2935 0.892578C11.6763 0.892578 11.9999 1.0293 12.2642 1.30273C12.5377 1.56706 12.6744 1.89062 12.6744 2.27344C12.6744 2.65625 12.5377 2.98438 12.2642 3.25781C11.9999 3.53125 11.6763 3.66797 11.2935 3.66797C10.9107 3.66797 10.5826 3.53125 10.3091 3.25781C10.0357 2.98438 9.89898 2.65625 9.89898 2.27344C9.89898 1.89062 10.0311 1.56706 10.2955 1.30273C10.5689 1.0293 10.9016 0.892578 11.2935 0.892578ZM12.4283 7.44141V17.5039C12.4283 18.2878 12.483 18.8118 12.5923 19.0762C12.7108 19.3314 12.8795 19.5228 13.0982 19.6504C13.3261 19.778 13.7362 19.8418 14.3287 19.8418V20.334H8.24469V19.8418C8.85536 19.8418 9.26552 19.7826 9.47516 19.6641C9.68479 19.5456 9.84885 19.3496 9.96734 19.0762C10.0949 18.8027 10.1587 18.2786 10.1587 17.5039V12.6777C10.1587 11.3197 10.1177 10.4401 10.0357 10.0391C9.9719 9.7474 9.87164 9.54688 9.73492 9.4375C9.5982 9.31901 9.41135 9.25977 9.17437 9.25977C8.91917 9.25977 8.60927 9.32812 8.24469 9.46484L8.05328 8.97266L11.8267 7.44141H12.4283Z" fill="black"/>
<path d="M18.9913 10.0938C20.4588 8.32552 21.8579 7.44141 23.1886 7.44141C23.8722 7.44141 24.4601 7.61458 24.9523 7.96094C25.4445 8.29818 25.8364 8.85872 26.128 9.64258C26.3286 10.1895 26.4288 11.028 26.4288 12.1582V17.5039C26.4288 18.2969 26.4926 18.8346 26.6202 19.1172C26.7205 19.3451 26.88 19.5228 27.0987 19.6504C27.3266 19.778 27.7413 19.8418 28.3429 19.8418V20.334H22.1495V19.8418H22.4093C22.9926 19.8418 23.3982 19.7552 23.6261 19.582C23.8631 19.3997 24.0271 19.1354 24.1183 18.7891C24.1547 18.6523 24.173 18.224 24.173 17.5039V12.377C24.173 11.2376 24.0226 10.4128 23.7218 9.90234C23.4301 9.38281 22.9334 9.12305 22.2316 9.12305C21.1469 9.12305 20.0668 9.7155 18.9913 10.9004V17.5039C18.9913 18.3516 19.0415 18.8757 19.1417 19.0762C19.2693 19.3405 19.4425 19.5365 19.6612 19.6641C19.8891 19.7826 20.3448 19.8418 21.0284 19.8418V20.334H14.8351V19.8418H15.1085C15.7465 19.8418 16.1749 19.6823 16.3937 19.3633C16.6215 19.0352 16.7355 18.4154 16.7355 17.5039V12.8555C16.7355 11.3516 16.699 10.4355 16.6261 10.1074C16.5623 9.7793 16.4575 9.55599 16.3116 9.4375C16.1749 9.31901 15.9881 9.25977 15.7511 9.25977C15.4959 9.25977 15.1905 9.32812 14.8351 9.46484L14.63 8.97266L18.4034 7.44141H18.9913V10.0938Z" fill="black"/>
<path d="M30.8864 12.5273C30.8773 14.3867 31.3285 15.8451 32.2399 16.9023C33.1514 17.9596 34.2223 18.4883 35.4528 18.4883C36.2731 18.4883 36.9841 18.265 37.5856 17.8184C38.1963 17.3626 38.7067 16.5879 39.1169 15.4941L39.5407 15.7676C39.3493 17.0163 38.7933 18.1556 37.8727 19.1855C36.9522 20.2064 35.7992 20.7168 34.4137 20.7168C32.9098 20.7168 31.6201 20.1335 30.5446 18.9668C29.4782 17.791 28.945 16.2142 28.945 14.2363C28.945 12.0944 29.4919 10.4264 30.5856 9.23242C31.6885 8.0293 33.0694 7.42773 34.7282 7.42773C36.1319 7.42773 37.2848 7.89258 38.1872 8.82227C39.0895 9.74284 39.5407 10.9779 39.5407 12.5273H30.8864ZM30.8864 11.7344H36.6833C36.6377 10.9323 36.542 10.3672 36.3962 10.0391C36.1683 9.52865 35.8265 9.1276 35.3708 8.83594C34.9242 8.54427 34.4548 8.39844 33.9626 8.39844C33.2061 8.39844 32.527 8.69466 31.9255 9.28711C31.333 9.87044 30.9867 10.6862 30.8864 11.7344Z" fill="black"/>
</svg>
